<svg xmlns="http://www.w3.org/2000/svg" xmlns:xlink="http://www.w3.org/1999/xlink" width="252" height="167" viewBox="-131 -84 252 167"><style>@font-face{font-family:&apos;PT Mono&apos;;font-style:normal;font-weight:400;src:local(&apos;PT Mono&apos;),local(&apos;PTMono-Regular&apos;),url(http://themes.googleusercontent.com/static/fonts/ptmono/v1/jmle3kzCPnW8O7_gZGRDlQ.woff) format(&apos;woff&apos;)}.caption{font-family:&apos;PT Mono&apos;;font-size:13px}</style><g><path stroke="#000" d="M 0.5 -79.5 L 0.5 80.5"/><path stroke="#000" d="M -79.5 0.5 L 80.5 0.5"/><path fill="none" stroke="#000" d="M 14.7 3 A 15 15 0 1 1 10.6 -10.6"/><path stroke="#000" d="M 12.5 -8.5 L 13.5 -7.5"/><path fill="#000" stroke="none" d="M 0 0 L 3 8 L 0 7 L -3 8 Z" transform="translate(13.5 -7.5) rotate(135) scale(1)"/><ellipse width="120" height="120" cx="0" cy="0" fill="none" stroke="#000" rx="60" ry="60"/><ellipse width="6" height="6" cx="42.426" cy="42.426" fill="#44f" rx="3" ry="3"/><path stroke="#44f" d="M 0.5 42.5 L 39.5 42.5"/><path fill="#44F" stroke="none" d="M 0 0 L 3 8 L 0 7 L -3 8 Z" transform="translate(39.5 42.5) rotate(90) scale(1)"/><path stroke="#44f" d="M 42.5 0.5 L 42.5 39.5"/><path fill="#44F" stroke="none" d="M 0 0 L 3 8 L 0 7 L -3 8 Z" transform="translate(42.5 39.5) rotate(180) scale(1)"/><text x="32.426" y="64.426" fill="#44f" class="caption">cos(¼π)</text><text x="62.426" y="29.426" fill="#44f" class="caption">sin(¼π)</text><ellipse width="6" height="6" cx="-30" cy="-51.962" fill="#0a0" rx="3" ry="3"/><path stroke="#0a0" d="M 0.5 -51.5 L -27.5 -51.5"/><path fill="#0A0" stroke="none" d="M 0 0 L 3 8 L 0 7 L -3 8 Z" transform="translate(-27.5 -51.5) rotate(270) scale(1)"/><path stroke="#0a0" d="M -30.5 0.5 L -30.5 -48.5"/><path fill="#0A0" stroke="none" d="M 0 0 L 3 8 L 0 7 L -3 8 Z" transform="translate(-30.5 -48.5) scale(1)"/><text x="-84" y="-69.962" fill="#0a0" class="caption">cos(-⅔π)</text><text x="-129" y="-29.962" fill="#0a0" class="caption">sin(-⅔π)</text></g></svg>