<svg xmlns="http://www.w3.org/2000/svg" xmlns:xlink="http://www.w3.org/1999/xlink" width="393" height="76" viewBox="-2 -2 393 76"><style>@font-face{font-family:&apos;PT Mono&apos;;font-style:normal;font-weight:400;src:local(&apos;PT Mono&apos;),local(&apos;PTMono-Regular&apos;),url(http://themes.googleusercontent.com/static/fonts/ptmono/v1/jmle3kzCPnW8O7_gZGRDlQ.woff) format(&apos;woff&apos;)}.objtext{font-family:&quot;PT Mono&quot;;font-size:14px;stroke:none}.objbox{border-radius:2px;fill:#fff;stroke:#000}.sep{stroke:#666}</style><g><g><rect width="104" height="51" x=".5" y=".5" class="objbox" rx="2" ry="2"/><text x="10" y="20" class="objtext">value: 1</text><text x="10" y="40" class="objtext">rest:</text></g><g><rect width="104" height="51" x="134.5" y="10.5" class="objbox" rx="2" ry="2"/><text x="144.5" y="30.5" class="objtext">value: 2</text><text x="144.5" y="50.5" class="objtext">rest:</text></g><path d="M 58.5 36.5 L 134.5 36.5" class="sep"/><path fill="#666" stroke="none" d="M 0 0 L 3 8 L 0 7 L -3 8 Z" transform="translate(134.5 36.5) rotate(90) scale(1)"/><g><rect width="120" height="51" x="268.5" y="20.5" class="objbox" rx="2" ry="2"/><text x="278.5" y="40.5" class="objtext">value: 3</text><text x="278.5" y="60.5" class="objtext">rest: null</text></g><path d="M 192.5 47.5 L 268.5 47.5" class="sep"/><path fill="#666" stroke="none" d="M 0 0 L 3 8 L 0 7 L -3 8 Z" transform="translate(268.5 47.5) rotate(90) scale(1)"/></g></svg>