<svg xmlns="http://www.w3.org/2000/svg" xmlns:svg="http://www.w3.org/2000/svg" id="svg2" width="618.759" height="166.235" version="1.1" style="overflow:hidden"><metadata id="metadata110"/><path id="path4" d="m 502.86787,89.225694 h 13.16396" style="fill:none;stroke:#000;stroke-width:2.63279247"/><path id="path6" d="m 405.45455,89.225694 h 13.16396" style="fill:none;stroke:#000;stroke-width:2.63279247"/><path id="path8" d="M 234.32304,89.225694 H 247.487" style="fill:none;stroke:#000;stroke-width:2.63279247"/><path id="path10" d="m 193.51476,89.225694 h 13.16396" style="fill:none;stroke:#000;stroke-width:2.63279247"/><path id="path12" d="m 110.5818,89.225694 h 13.16396" style="fill:none;stroke:#000;stroke-width:2.63279247"/><path id="path14" d="m 418.61851,89.225694 q 13.16396,0 13.16396,-13.16396 v -3.290991 q 0,-13.163962 13.16396,-13.163962 h 31.59351 q 13.16396,0 13.16396,13.163962 v 3.290991 q 0,13.16396 13.16397,13.16396" style="fill:none;stroke:#000;stroke-width:2.63279247"/><path id="path16" d="M 502.86787,89.225694 H 476.53994" style="fill:none;stroke:#000;stroke-width:2.63279247"/><path id="path18" d="m 418.61851,89.225694 h 26.32792" style="fill:none;stroke:#000;stroke-width:2.63279247"/><path id="path20" d="M 405.45455,89.225694 H 392.29059" style="fill:none;stroke:#000;stroke-width:2.63279247"/><path id="path22" d="m 247.487,89.225694 h 13.16396" style="fill:none;stroke:#000;stroke-width:2.63279247"/><path id="path24" d="m 392.29059,89.225694 q -13.16397,0 -13.16397,13.163956 v 19.74595 q 0,13.16396 -13.16396,13.16396 h 0" style="fill:none;stroke:#000;stroke-width:2.63279247"/><path id="path26" d="m 260.65096,89.225694 q 13.16397,0 13.16397,13.163956 v 19.74595 q 0,13.16396 13.16396,13.16396 h 0" style="fill:none;stroke:#000;stroke-width:2.63279247"/><path id="path28" d="m 392.29059,89.225694 c -13.16397,0 -13.16397,0 -39.49189,0" style="fill:none;stroke:#000;stroke-width:2.63279247"/><path id="path30" d="m 260.65096,89.225694 c 13.16397,0 13.16397,0 39.49189,0" style="fill:none;stroke:#000;stroke-width:2.63279247"/><path id="path32" d="m 392.29059,89.225694 q -13.16397,0 -13.16397,-13.16396 V 56.31579 q 0,-13.163962 -13.16396,-13.163962 h -16.45495" style="fill:none;stroke:#000;stroke-width:2.63279247"/><path id="path34" d="m 260.65096,89.225694 q 13.16397,0 13.16397,-13.16396 V 56.31579 q 0,-13.163962 13.16396,-13.163962 h 16.45495" style="fill:none;stroke:#000;stroke-width:2.63279247"/><path id="path36" d="m 180.3508,89.225694 q 13.16396,0 13.16396,13.163956 v 3.29099 q 0,13.16397 -13.16396,13.16397 h -43.44108 q -13.16396,0 -13.16396,-13.16397 v -3.29099 q 0,-13.163956 13.16396,-13.163956" style="fill:none;stroke:#000;stroke-width:2.63279247"/><path id="path38" d="M 193.51476,89.225694 H 180.3508" style="fill:none;stroke:#000;stroke-width:2.63279247"/><path id="path40" d="m 123.74576,89.225694 h 13.16396" style="fill:none;stroke:#000;stroke-width:2.63279247"/><desc id="desc42">Created with Raphaël 2.1.0</desc><rect id="rect46" width="27.644" height="32.91" x="206.679" y="72.771" r="0" rx="3.949" ry="3.949" style="fill:#dae9e5;stroke:#dae9e5;stroke-width:1.31639624"/><text id="text48" x="220.501" y="89.226" font="10px &quot;Arial&quot;" font-size="12" style="font-size:15.79675484px;font-style:normal;font-variant:normal;font-weight:400;line-height:normal;text-anchor:middle;fill:#000;stroke:none;font-family:Arial"><tspan id="tspan50" dy="5.924">&quot; &quot;</tspan></text><rect id="rect52" width="89.123" height="33.117" x="21.563" y="72.667" r="0" rx="2.785" ry="3.974" style="fill:#bada55;stroke:#bada55;stroke-width:1.10896111"/><text id="text3087" x="66.728" y="94.361" font="10px &quot;Arial&quot;" font-size="12" style="font-size:15.79675484px;font-style:normal;font-variant:normal;font-weight:400;line-height:normal;text-anchor:middle;fill:#000;stroke:none;font-family:Arial"><tspan id="tspan3089">boundary</tspan></text><rect id="rect58" width="81.317" height="33.166" x="515.904" y="72.643" r="0" rx="2.541" ry="3.98" style="fill:#bada55;stroke:#bada55;stroke-width:1.06006885"/><text id="text60" x="556.562" y="94.663" font="10px &quot;Arial&quot;" font-size="12" style="font-size:15.79675484px;font-style:normal;font-variant:normal;font-weight:400;line-height:normal;text-anchor:middle;fill:#000;stroke:none;font-family:Arial"><tspan id="tspan62">boundary</tspan></text><rect id="rect64" width="157.968" height="151.386" x="247.487" y="13.533" r="0" rx="3.949" ry="3.949" style="fill:none;stroke:#a0a0a0;stroke-width:2.63279247;stroke-dasharray:7.89837727,2.63279242"/><text id="text66" x="276.448" y="4.976" font="10px &quot;Arial&quot;" font-size="10" style="font-size:13.16396236px;font-style:normal;font-variant:normal;font-weight:400;line-height:normal;text-anchor:middle;fill:#000;stroke:none;font-family:Arial"><tspan id="tspan68" dy="4.607">Group #1</tspan></text><rect id="rect70" width="78.984" height="32.91" x="286.979" y="118.845" r="0" rx="3.949" ry="3.949" style="fill:#dae9e5;stroke:#dae9e5;stroke-width:1.31639624"/><text id="text72" x="326.471" y="135.3" font="10px &quot;Arial&quot;" font-size="12" style="font-size:15.79675484px;font-style:normal;font-variant:normal;font-weight:400;line-height:normal;text-anchor:middle;fill:#000;stroke:none;font-family:Arial"><tspan id="tspan74" dy="5.924">&quot;chicken&quot;</tspan></text><rect id="rect76" width="52.656" height="32.91" x="300.143" y="72.771" r="0" rx="3.949" ry="3.949" style="fill:#dae9e5;stroke:#dae9e5;stroke-width:1.31639624"/><text id="text78" x="326.471" y="89.226" font="10px &quot;Arial&quot;" font-size="12" style="font-size:15.79675484px;font-style:normal;font-variant:normal;font-weight:400;line-height:normal;text-anchor:middle;fill:#000;stroke:none;font-family:Arial"><tspan id="tspan80" dy="5.924">&quot;cow&quot;</tspan></text><rect id="rect82" width="46.074" height="32.91" x="303.434" y="26.697" r="0" rx="3.949" ry="3.949" style="fill:#dae9e5;stroke:#dae9e5;stroke-width:1.31639624"/><text id="text84" x="326.471" y="43.152" font="10px &quot;Arial&quot;" font-size="12" style="font-size:15.79675484px;font-style:normal;font-variant:normal;font-weight:400;line-height:normal;text-anchor:middle;fill:#000;stroke:none;font-family:Arial"><tspan id="tspan86" dy="5.924">&quot;pig&quot;</tspan></text><rect id="rect88" width="43.441" height="32.91" x="136.91" y="72.771" r="0" rx="3.949" ry="3.949" style="fill:#bada55;stroke:#bada55;stroke-width:1.31639624"/><text id="text90" x="158.63" y="89.226" font="10px &quot;Arial&quot;" font-size="12" style="font-size:15.79675484px;font-style:normal;font-variant:normal;font-weight:400;line-height:normal;text-anchor:middle;fill:#000;stroke:none;font-family:Arial"><tspan id="tspan92" dy="5.924">digit</tspan></text><rect id="rect94" width="31.594" height="32.91" x="444.946" y="72.771" r="0" rx="3.949" ry="3.949" style="fill:#dae9e5;stroke:#dae9e5;stroke-width:1.31639624"/><text id="text96" x="460.743" y="89.226" font="10px &quot;Arial&quot;" font-size="12" style="font-size:15.79675484px;font-style:normal;font-variant:normal;font-weight:400;line-height:normal;text-anchor:middle;fill:#000;stroke:none;font-family:Arial"><tspan id="tspan98" dy="5.924">&quot;s&quot;</tspan></text><path id="path100" d="M 7.8983762,89.225694 H 21.062338" style="fill:none;stroke:#000;stroke-width:2.63279247"/><circle id="circle102" cx="10" cy="80.5" r="5" transform="matrix(1.3163962,0,0,1.3163962,-5.2655848,-16.744199)" style="fill:#6b6659;stroke:#000;stroke-width:2"/><path id="path104" d="M 610.86099,88.62152 H 597.69703" style="fill:none;stroke:#000;stroke-width:2.63279247"/><circle id="circle106" cx="530" cy="80.5" r="5" transform="matrix(1.3163962,0,0,1.3163962,-86.82901,-17.348373)" style="fill:#6b6659;stroke:#000;stroke-width:2"/></svg>